<svg xmlns="http://www.w3.org/2000/svg" width="133" height="30" viewBox="0 0 133 30"><g transform="translate(-1369.06 -1677.637)"><g transform="translate(1411.363 1679.49)"><path d="M1965.888,1727.35q-2.77-2.52-2.915-7.487-.037-1.059-.036-3.1,0-2.082.036-3.141.145-4.857,2.988-7.45a12.617,12.617,0,0,1,15.324,0q2.86,2.594,3.007,7.45.073,2.118.073,3.141,0,.986-.073,3.1-.183,4.967-2.952,7.487t-7.726,2.52Q1968.657,1729.87,1965.888,1727.35Zm11.625-3.159a6.548,6.548,0,0,0,1.567-4.51q.073-2.191.073-2.958,0-.84-.073-2.958a6.55,6.55,0,0,0-1.567-4.51,5.832,5.832,0,0,0-7.762,0,6.547,6.547,0,0,0-1.567,4.51q-.037,1.06-.036,2.958,0,1.863.036,2.958a6.6,6.6,0,0,0,1.549,4.51,5.165,5.165,0,0,0,3.881,1.479A5.228,5.228,0,0,0,1977.513,1724.191Z" transform="translate(-1962.936 -1703.576)" fill="#040405"/></g><g transform="translate(1439.44 1681.922)"><path d="M2357.278,1758.862a.7.7,0,0,1-.214-.536V1738.4a.733.733,0,0,1,.763-.765h2.412a.943.943,0,0,1,.916.582l5.893,11.021,5.954-11.021a.98.98,0,0,1,.916-.582h2.382a.733.733,0,0,1,.763.765v19.929a.7.7,0,0,1-.214.536.774.774,0,0,1-.55.2h-2.565a.731.731,0,0,1-.733-.735v-13.256l-4.275,8.174a1.18,1.18,0,0,1-1.038.673h-1.252a1.179,1.179,0,0,1-1.038-.673l-4.275-8.174v13.256a.738.738,0,0,1-.2.52.693.693,0,0,1-.534.214h-2.565A.773.773,0,0,1,2357.278,1758.862Z" transform="translate(-2357.064 -1737.632)" fill="#040405"/></g><g transform="translate(1466.36 1682.833)"><path d="M2736.894,1767.695q-2.071-1.906-2.071-5.772v-11.24a.7.7,0,0,1,.18-.5.628.628,0,0,1,.483-.193H2738a.629.629,0,0,1,.483.193.7.7,0,0,1,.179.5v11.24a4.7,4.7,0,0,0,1.05,3.328,3.891,3.891,0,0,0,2.983,1.118,3.846,3.846,0,0,0,2.969-1.118,4.741,4.741,0,0,0,1.036-3.328v-11.24a.662.662,0,0,1,.691-.69h2.485a.63.63,0,0,1,.483.193.7.7,0,0,1,.179.5v11.24q0,3.867-2.057,5.772a9.757,9.757,0,0,1-11.586,0Z" transform="translate(-2734.823 -1749.992)" fill="#040405"/></g><g transform="translate(1489.203 1684.587)"><path d="M3055.522,1790.488a.532.532,0,0,1-.161-.391v-14.973a.583.583,0,0,1,.149-.414.523.523,0,0,1,.4-.161h5.957a6.751,6.751,0,0,1,4.4,1.311,4.546,4.546,0,0,1,1.6,3.726,4.71,4.71,0,0,1-.817,2.818,4.543,4.543,0,0,1-2.265,1.645l3.358,5.865a.572.572,0,0,1,.069.253.451.451,0,0,1-.149.345.48.48,0,0,1-.333.138h-2.093a.863.863,0,0,1-.563-.161,1.508,1.508,0,0,1-.357-.46l-2.967-5.451h-3.2v5.52a.554.554,0,0,1-.149.391.523.523,0,0,1-.4.161h-2.093A.531.531,0,0,1,3055.522,1790.488Zm6.279-8.51a3.057,3.057,0,0,0,2.082-.621,2.27,2.27,0,0,0,.7-1.794,2.343,2.343,0,0,0-.7-1.817,2.983,2.983,0,0,0-2.082-.644h-3.243v4.876Z" transform="translate(-3055.361 -1774.549)" fill="#040405"/></g><path d="M1389.764,1677.637h-12.7l-8,15,8,15h12.449c9.454,0,16-6.171,16-15C1405.507,1683.766,1399.047,1677.637,1389.764,1677.637Zm.171,24.3h-6.117v-18.6h5.818c5.133,0,8.983,3.814,8.983,9.343C1398.619,1698.166,1394.94,1701.937,1389.936,1701.937Z" transform="translate(0 0)" fill="#040405"/></g></svg>